<svg id="Capa_1" data-name="Capa 1" xmlns="http://www.w3.org/2000/svg" viewBox="0 0 69.9 100"><title>BackCard</title><path d="M68.6,97.7H1.9c-.4,0-.5-.1-.5-.5,0-10.1-.1-20.3-.1-30.4V.9C1.2.4,1.4.2,2,.2H67.7c.8,0,.8,0,.8.8V69.3c.1,7.8.1,15.6.2,23.5v4.6C68.7,97.5,68.6,97.6,68.6,97.7ZM68,49h0V1.4c0-.6-.2-.7-.7-.7H2.6c-.8,0-.8,0-.8.8V70.6c.1,5.5.1,10.9.1,16.4v9.5c0,.5.1.7.7.7H67.4c.7,0,.7,0,.7-.7s.1-.4.1-.7c-.1-5.1-.1-10.2-.1-15.3S68,72.1,68,67.9Z" transform="translate(-0.1 1)" style="fill:#fff"/><path d="M70,99H.8c-.5,0-.6-.1-.6-.6C.2,88.1.2,77.7.1,67.3V-.3C.1-.8.3-1,.8-1H69c.8,0,.8,0,.8.8V23.7c0,6,0,12,.1,18,0,9.4-.1,18.8,0,28.2s0,16,.1,24V99Zm-.6-49.9h-.1V.2c0-.5-.2-.7-.7-.7H1.5C.7-.4.7-.5.7.3V14.1c0,5-.1,10.1-.1,15.1s.1,8.2.1,12.2V71.2C.7,76.8.7,82.4.8,88v9.7c0,.5.1.8.7.7H68.6c.8,0,.8,0,.8-.7a1.3,1.3,0,0,0,.1-.6c-.1-5.3-.1-10.5-.1-15.8V49.1Z" transform="translate(-0.1 1)" style="fill:#fff;opacity:0"/><path d="M11.9,69c-.6,1.2-.7,2.5-1.3,3.6h-.3L11,70h0a6.4,6.4,0,0,0-1,1.3l-.6.7c-.1.2-.3.2-.5.3H8.7l3.6-4.8h-.1a4.3,4.3,0,0,1-2.5.7,3.2,3.2,0,0,1-3.2-2.8,2.5,2.5,0,0,1,1.2-2.3,2.3,2.3,0,0,1,2.4,0,1.3,1.3,0,0,1-.7,2.5,1.8,1.8,0,0,1-.9-.4.7.7,0,0,0,.3.9,1.8,1.8,0,0,0,2.3-.2,1.7,1.7,0,0,0,.4-2.1,6.5,6.5,0,0,0-1.8-1.9c.1,0,.3-.1.4,0a3.1,3.1,0,0,1,2,2.9,1.9,1.9,0,0,1-1.3,1.8A2.3,2.3,0,0,1,8.2,66a1.2,1.2,0,0,1,.4-1.9c.1.2.1.3.2.4l.8.4a.8.8,0,0,0,.8-.6,1,1,0,0,0-.4-1,2,2,0,0,0-2.8.9,2.5,2.5,0,0,0,2.1,3.3,3.2,3.2,0,0,0,3.4-1.4,4.3,4.3,0,0,0-.1-4.1A4.2,4.2,0,0,0,9,60.3H8.6c1.1,1,1.1,1.5.2,1.8V62a1.1,1.1,0,0,0-1.3-1.3,4.6,4.6,0,0,0-2.7,2,7.3,7.3,0,0,0-1.5,3.9A5.9,5.9,0,0,0,3.5,68c.4-.6.5-1.3,1.3-1.5H5.9l-.5.6A2.9,2.9,0,0,0,6,71.2a8.2,8.2,0,0,0,4.2,1.7,17.3,17.3,0,0,1,5.4,2.3,5,5,0,0,1,2.3,4.9l-1,.3c-.2.1-.5.3-.5.5a.9.9,0,0,0-.1.9c0,.1.4.2.4.2l.6-.6c.1-.2-.1-.6.3-.5a.5.5,0,0,1,.3.8,8.3,8.3,0,0,0-.8,1.2h.1a7.1,7.1,0,0,1,1-1.4l1-1c.2-.2.5-.1.8,0l-.9,1h0l.8-.4a1.8,1.8,0,0,1,2.5,1,1.5,1.5,0,0,1-1.1,1.9,1.4,1.4,0,0,1-1.2-.7,1,1,0,0,1,.5-1.1.5.5,0,0,1,.5,0l.2.4c0,.1-.3.2-.4.2l-.3.2c0,.2.1.4.2.4a.7.7,0,0,0,.6.1,1.5,1.5,0,0,0,.5-.6.9.9,0,0,0-.5-1,1.1,1.1,0,0,0-1.3-.2l-1.3,1a4.3,4.3,0,0,1-1,.9,3.5,3.5,0,0,1-1.4.6c-.4.1-.7-.1-.8-.6a1.8,1.8,0,0,0-.9-1.3l-1.4-.7-1-.2-.7-.4-1.1-1.3a1.5,1.5,0,0,0-.9-.4c-.3,0-.5.3-.8.4l-.3.3a1,1,0,0,1-.5-.4.8.8,0,0,1,.6-.9l1.3-.2a6,6,0,0,0-.8-.8c-.7-.6-.8-1.1-.4-1.7l.9.9.9.5,1,.4c.3-.4.1-1.3,1.1-1.3a1,1,0,0,1,1,.7c-1.6.7-2.1,2.3-1.2,3.5-.2-.8-.5-1.7.5-2.2s.5,0,.8,0a4.9,4.9,0,0,0-.4,1,1.3,1.3,0,0,0,.5.7,1.3,1.3,0,0,0,.8-.3,2.4,2.4,0,0,0,.3-2,4.4,4.4,0,0,0-1.7-2.7,6.7,6.7,0,0,0-3-1.3H9c-.7.2-.9.5-.8,1.3H8.1a.9.9,0,0,1-.3-.5c-.1-1.1,1-1.8,2.2-1.5l3.3,1.2-.6-.4A11.4,11.4,0,0,0,7.9,73a12.4,12.4,0,0,1-2.7-.3c-.3,0-.6-.3-.9-.5s2,.4,3.1.3H6.9a.5.5,0,0,0-.4-.2A5.6,5.6,0,0,1,3,67.7a6,6,0,0,1,.9-4.3l.3-.7a1.5,1.5,0,0,0-.5-2.2c.6-.5.8-.2,1.3,1.2l.7-.6c.9-1,1.9-2,2.8-3.1a3.2,3.2,0,0,0,.7-2.3c-.1-1.4-1.1-1.9-2.2-2.2H6.4a1.4,1.4,0,0,0-1.4.9,1.6,1.6,0,0,0,.4,1.8,1.2,1.2,0,0,0,1.5.2.8.8,0,0,0,.2-1.3l-.3.2H6.3a.9.9,0,0,1-.3-.6c0-.2.3-.4.5-.5a1.1,1.1,0,0,1,1.1.5,1.6,1.6,0,0,1,.1,1.5,1.7,1.7,0,0,1-1.6.7H5.8a5.3,5.3,0,0,1-.1,1.3,1.7,1.7,0,0,1-1.9,1.5,1.6,1.6,0,0,1-1.5-1.3c0-.4,0-.9.4-1.1a1,1,0,0,1,1.3.2.7.7,0,0,1,.3.6.5.5,0,0,1-.6.5.5.5,0,0,1-.3-.7.3.3,0,0,1,.1-.2.5.5,0,0,0-.7.4.8.8,0,0,0,.5,1,1.3,1.3,0,0,0,2-1.1A3.2,3.2,0,0,0,5,56.7c-.7-1.4-.7-1.4-.3-2.9l-1.2-.2a1.7,1.7,0,0,1-1.2-1.9.9.9,0,0,1,.6-.7c.2-.1.5.1.8.2a1.1,1.1,0,0,1,.2.6c0,.1-.3.2-.4.2l-.4-.3-.2-.3a.8.8,0,0,0-.1,1.1,2,2,0,0,0,1.9.8l1.7-.2a3.3,3.3,0,0,1,2.8,1.1l.2-.5c.6.6.1,1.2.2,1.8h1.1v.3c-1.1,0-1.1.7-1.3,1.4s-.3.7-.4,1.1a23.1,23.1,0,0,0,2.4-2A1.8,1.8,0,0,0,12,55c.1-.3-.2-.6-.5-.8a.5.5,0,0,0-.8.1c0,.1.1.1.1.2l.3.4c0,.1-.2.2-.3.2a.5.5,0,0,1-.5-.3c-.3-.3,0-1,.5-1a1.3,1.3,0,0,1,1.4.4,1.4,1.4,0,0,1,.2,1.5l-.6,1,1.1-.5c-.3,1.1-1.3.9-1.9,1.2l.6.7h-.1a2.2,2.2,0,0,0-2.5.7l3.1.7a.8.8,0,0,0,1-.6c.2-.5-.1-.8-.6-.7s.4.6-.1.7-.4,0-.4-.1a.9.9,0,0,1,0-.7.8.8,0,0,1,1.1-.3,1.1,1.1,0,0,1,.4,1.4,1.3,1.3,0,0,1-1.4.7l-2.6-.5a2.1,2.1,0,0,0-2,.6H8.8a4.1,4.1,0,0,1,4.5,2.6,5.5,5.5,0,0,1-.2,4.2,29.9,29.9,0,0,0-1,3.2,3.2,3.2,0,0,0,.1,1.4,1,1,0,0,0,.7.4c.2,0,.4-.2.6-.4s-.2-.1-.2-.2l-.6-.2c.1-.2.2-.6.4-.6s.6.1.6.3a2.1,2.1,0,0,1,0,1.1,1,1,0,0,1-1,.6,1,1,0,0,1-1-.8,6.9,6.9,0,0,1,.1-2A.7.7,0,0,1,11.9,69ZM4.8,67.1c-1,.8-.6,3.4.5,3.8A3.2,3.2,0,0,1,4.8,67.1ZM18.1,83.3c.9-.8,1.6-1.9,3-1.8C20,81.2,18.8,82,18.1,83.3Zm-3.9-8,1.5,2.8A4.8,4.8,0,0,0,14.2,75.3ZM8.5,74c1.1-.6,2.1,0,3.2.2C10.6,73.8,9.6,73.2,8.5,74Zm9,9.2h.1l1.5-2.1H19Zm-.4-3.6h.2l-.6-2.9h-.2Zm-2-4,1.1,2.7A6.2,6.2,0,0,0,15.1,75.6ZM4.3,70.2a4.2,4.2,0,0,1-.2-2.7A2.6,2.6,0,0,0,4.3,70.2Zm9.9,5.5h-.1L15.3,78h.1ZM9.7,79a1,1,0,0,0-1.3.6Zm6.6-2h-.1l.4,1.9h.2Zm1.1,2.6h.2L17.4,78h-.1Z" transform="translate(-0.1 1)" style="fill:#fff"/><path d="M5.2,36.1c-.8,1.6-.9,1.6-1.5,1.3s.4-.3.5-.5a1.7,1.7,0,0,0,0-1.8A20.6,20.6,0,0,1,3,32.5a5.9,5.9,0,0,1,4.1-7.1h.1c-1-.1-1.9.7-2.9.4v-.2c.3-.1.6-.4.9-.4s3.3-.3,4.9-.6a6.8,6.8,0,0,0,4.7-2.6,5,5,0,0,0,.9-2.3c-.1.4-.3.8-.4,1.2A4.9,4.9,0,0,1,12,23.7a8.9,8.9,0,0,1-2.8.7c-.8.1-1.3-.4-1.5-1.2a.8.8,0,0,1,.2-.8c.3.4.4.9.7,1.1a1.8,1.8,0,0,0,1.3.3c1.9-.2,4.6-1.7,5-4.3a3,3,0,0,0-.3-1.6.7.7,0,0,0-1.1-.4.9.9,0,0,0,0,1.2c0,.1.1.1.2.2a.8.8,0,0,1-1,.2c-.5-.3-.6-.6-.4-2.1-1,.9-.3,2.7,1.2,3.4a1,1,0,0,1-1,.7c-1,0-.8-.9-1.1-1.3l-1.1.5a4.7,4.7,0,0,0-1.2.9c-.2.1-.2.3-.4.4a.9.9,0,0,1,0-1.3L10,19.2l-1.6-.4a.8.8,0,0,1-.4-.7c0-.2.3-.4.5-.6s1.2,1.1,2,.3a5.8,5.8,0,0,0,1-1.2,1.9,1.9,0,0,1,.8-.3,3.4,3.4,0,0,0,1.4-.5.7.7,0,0,1,.6-.3,1.8,1.8,0,0,0,1.2-1.2c.3-.8.8-1.1,1.6-.7l1.4,1.1L20.1,16a1.2,1.2,0,0,0,1.7-1.1.8.8,0,0,0-.9-.8l-.4.5.4.2.3.3a.4.4,0,0,1-.4.4.7.7,0,0,1-.7-1,1.5,1.5,0,0,1,.8-.8,1.2,1.2,0,0,1,1.2.5,1.5,1.5,0,0,1,.1,1.7,1.9,1.9,0,0,1-1.9.8L19,16.3l1,1c-1.5.3-1.7-1-2.3-1.6s.1.6.1,1-.2.2-.4.3a6.4,6.4,0,0,0-.2-.7c-.2-.3-.5-.6-.8-.4a.8.8,0,0,0-.2.8,1.6,1.6,0,0,0,1,.8c.6.2.7.4.7,1A5.4,5.4,0,0,1,15,23a24.2,24.2,0,0,1-6.2,2.2,5.5,5.5,0,0,0-3.5,2,2.6,2.6,0,0,0,.1,3.6l.3.4a1.1,1.1,0,0,1-1.4-.1,10.1,10.1,0,0,1-.9-1.3,4.5,4.5,0,0,0,0,2.3,6.8,6.8,0,0,0,2.5,4.3,5.6,5.6,0,0,0,1.6.7c.9.2,1.3-.2,1.3-1v-.5c.3.3.6.5.6.6a5.4,5.4,0,0,1-.7,1.3,4,4,0,0,0,1.1,0A3.7,3.7,0,0,0,13,35a3.8,3.8,0,0,0-1.2-4.1,3.2,3.2,0,0,0-4.6.8,2.3,2.3,0,0,0,.3,2.5,2,2,0,0,0,2.1.5,1,1,0,0,0,.7-1.2.7.7,0,0,0-.9-.6c-.4.1-.6.5-1,.8a1.4,1.4,0,0,1-.5-1.1,1.2,1.2,0,0,1,.8-1.1,2.4,2.4,0,0,1,2.9.5,2.4,2.4,0,0,1,.1,2.8,4,4,0,0,1-1.9,1.5H9.6l.3-.4a3.1,3.1,0,0,0,1.7-1.7,1.6,1.6,0,0,0-.6-2,2,2,0,0,0-2.2-.2c-.4.2-.5.4-.4.9h.3a1.4,1.4,0,0,1,1.9.2,1.6,1.6,0,0,1-.4,2,2.4,2.4,0,0,1-3.6-1.3,2.9,2.9,0,0,1,3.1-3.7,4.5,4.5,0,0,1,2.5.7h.1L8.7,25.7v-.2l.5.3a16.3,16.3,0,0,0,1.7,2l-.7-2.5h.2c.1.2.2.3.2.5l.9,2.9.2.3-.3-1.2a2,2,0,0,1,.6-2,1,1,0,0,1,1.3.2,1.2,1.2,0,0,1,.3,1.4c-.3.4-.7.4-.9.1a.8.8,0,0,1-.2-.5l.4-.2h.4c-.2-.2-.5-.5-.6-.4s-.7.3-.7.5a4.9,4.9,0,0,0,0,1.7c.4,1.4.9,2.8,1.4,4.2a4.5,4.5,0,0,1-1.7,4.8,4.7,4.7,0,0,1-3.5.6l-.9-.2a1.8,1.8,0,0,0,1.5.7l2.2-.3a2.3,2.3,0,0,1,2,0,1.1,1.1,0,0,1,.2,1.6.8.8,0,0,1-1.4-.1.9.9,0,0,1,.1-.7c0-.1.5-.1.5,0s0,.4,0,.7.5-.1.5-.2.1-.7-.1-.8a1.9,1.9,0,0,0-1-.3L9,38.9a2.3,2.3,0,0,0,2.5.8h0l-.6.6c.6.4,1.6.1,2,1.2l-1-.4c.1.4.4.9.5,1.3a1.3,1.3,0,0,1-1.7,1.6c-.5-.2-.7-.9-.4-1.2h.6a.7.7,0,0,1-.1.5c0,.1-.1.1-.2.3s.6.2.7.1A1.6,1.6,0,0,0,12,43a1.3,1.3,0,0,0-.6-1.4l-2.3-2a15.5,15.5,0,0,0,.4,1.5c.2.6.5,1.1,1.2,1s-.7.2-1.1.2.4,1.2-.2,1.8l-.3-.5C8,45,6.4,44.8,4.9,44.6a2.2,2.2,0,0,0-1.8.3c-.6.4-.7,1-.2,1.4s.1-.3.2-.3.5-.2.6-.1.2.4.1.5a.8.8,0,0,1-1,.4.9.9,0,0,1-.6-1.1c.1-1,.8-1.5,1.9-1.6h.7a2.7,2.7,0,0,1,.1-2.9,2.3,2.3,0,0,0,.3-1.6c0-.9-1.2-1.4-2-1s-.5.5-.4,1,.2.5.7.4a.4.4,0,0,1-.1-.3c-.1-.3,0-.5.3-.5s.6.1.6.5-.4.7-.8.8a.9.9,0,0,1-1.1-.4,1.5,1.5,0,0,1,1-2,1.8,1.8,0,0,1,2.3,2.2c-.1.4-.1.5.5.5s2,1,1.5,2a1.1,1.1,0,0,1-1.2.7A1.2,1.2,0,0,1,6,43c-.1-.1.1-.4.2-.5s.4,0,.7.1H7c.5-.5.4-1-.1-1.3a1.3,1.3,0,0,0-1.9.8,1.5,1.5,0,0,0,1.7,2.1c1.9-.2,2.8-1.4,2.3-3.2A5.3,5.3,0,0,0,7.9,39,37.1,37.1,0,0,0,5.2,36.1ZM8.5,23.8a1.5,1.5,0,0,0,1.4.4,7.8,7.8,0,0,0,3.6-1.6l.3-.3-2.1,1.2C10.7,23.9,9.6,24.4,8.5,23.8ZM5.2,26.9a2.4,2.4,0,0,0-1,2.1,1.8,1.8,0,0,0,.5,1.7A3.3,3.3,0,0,1,5.2,26.9ZM21,16.4c-1.4,0-2.1-1-3-1.9C18.8,15.9,20.2,16.8,21,16.4Zm-4.8,3-1.4,3.1A5.9,5.9,0,0,0,16.2,19.4Zm-.5,2.4a5.1,5.1,0,0,0,.9-3ZM17,18.3c-.1.5-.1,1-.2,1.5a8.8,8.8,0,0,1-.5,1.5A4.5,4.5,0,0,0,17,18.3Zm-1.8,1.5L14,22.1A3.5,3.5,0,0,0,15.2,19.8ZM4.1,30.3a3.2,3.2,0,0,1,.2-2.7A2.4,2.4,0,0,0,4.1,30.3ZM9.6,18.8l-1.2-.6A1,1,0,0,0,9.6,18.8Zm.1,1.4a.9.9,0,0,0,.8-1.1Zm7.8-2h-.1L17.2,20h.1Z" transform="translate(-0.1 1)" style="fill:#fff"/><path d="M56.2,23l2.1,1.2c1.6.7,3.3.6,4.9.8h1.2a3,3,0,0,1,1.1.6c-1.1.4-2-.4-3.1-.3l1.2.5a5.6,5.6,0,0,1,3.2,4.7,6.8,6.8,0,0,1-1.1,4.2,2.8,2.8,0,0,0-.4,1.2,1.2,1.2,0,0,0,.7,1.4c-.5.4-.6.4-1.3-1.2-1.3,1.3-2.8,2.3-3.7,3.9a4.2,4.2,0,0,0-.3,2.7A2.5,2.5,0,0,0,64.4,44a1.8,1.8,0,0,0,.2-2.1,1.4,1.4,0,0,0-1.7-.4c-.6.2-.7.8-.2,1.3l.3-.2a.4.4,0,0,1,.7.1c.1.3.1.7-.3.8a1.8,1.8,0,0,1-1-.2,1,1,0,0,1-.5-1.2,1.3,1.3,0,0,1,1.2-1.2H64v-.6a1.7,1.7,0,0,1,1-1.9,2,2,0,0,1,2.2.4,1.7,1.7,0,0,1,0,1.7,1.2,1.2,0,0,1-1.5-.1c-.1-.1-.3-.4-.2-.6a.6.6,0,0,1,.5-.5c.3,0,.4.3.3.6a.4.4,0,0,1-.1.3.6.6,0,0,0,.8-.5.9.9,0,0,0-.6-1c-1.3-.3-2.2.5-1.9,1.7a1.4,1.4,0,0,0,.3.9,3,3,0,0,1,.2,2.9l1.2.2a1.6,1.6,0,0,1,1.2,2.1.9.9,0,0,1-.7.5,1.3,1.3,0,0,1-.7-.4c-.1-.1,0-.4,0-.6l.6.2c.1.1.2.2.2.3a.8.8,0,0,0-.1-1.3,2.5,2.5,0,0,0-1.7-.5l-1.9.2a3.4,3.4,0,0,1-2.5-1.1l-.3.4h-.1a1.1,1.1,0,0,1-.1-.8c0-.3.1-.6.1-.9H59.1c1.4-.4,1-1.8,1.5-2.6-1,.8-2.2,1.3-2.8,2.5s0,1.5.8,1.5h.5v-.2h-.2a1.3,1.3,0,0,1-.1-.6h.6a.8.8,0,0,1-.4,1.2,1.3,1.3,0,0,1-1.7-1,2.7,2.7,0,0,1,.6-1.9l-1,.4c0-.5.4-.7.8-.8l1.1-.3-.6-.7h.1c1,.4,1.7-.1,2.5-.7l-2-.4-1.1-.2a1.5,1.5,0,0,0-.9.2,1.4,1.4,0,0,0-.2.7c.1.1.4.2.5.4v-.8c.2,0,.6,0,.6.1a1.9,1.9,0,0,1-.1.8.9.9,0,0,1-1.3,0,1.1,1.1,0,0,1,.1-1.5,2,2,0,0,1,1.7-.3l1.9.5a2.4,2.4,0,0,0,2.1-.7l-1.1.2a4.3,4.3,0,0,1-4.9-5.2c.2-1,.7-1.9,1-2.9s.3-1.6.5-2.4a3.6,3.6,0,0,0-.2-1c-.1-.2-.5-.3-.7-.3s-.4.3-.6.4.2.2.2.2l.7.2c-.1.2-.2.5-.4.6l-.7-.2a1.2,1.2,0,0,1,.4-1.6,1,1,0,0,1,1.5.3,3.2,3.2,0,0,1,.2,1.4,7.8,7.8,0,0,1-.2,1.4h0l1.2-3.7h.2c.1.5-.2.9-.3,1.3a5.9,5.9,0,0,0-.2,1.4l1.1-1.5c.2-.2.3-.5.6-.7s.2-.1.4-.2H61l-1.9,2.4-1.7,2.5a4.8,4.8,0,0,1,3-.7c1.9.3,3.4,2.1,2.5,4A2.4,2.4,0,0,1,59.5,35a1.5,1.5,0,0,1-.4-2,1.3,1.3,0,0,1,1.9-.2h.2a.7.7,0,0,0-.3-.9,2.4,2.4,0,0,0-2.3.1,1.9,1.9,0,0,0-.5,2,3.5,3.5,0,0,0,1.6,1.8l.3.4h-.4a3,3,0,0,1-2-2.5,2.2,2.2,0,0,1,1.2-2.2,2.5,2.5,0,0,1,2.5.2,1.3,1.3,0,0,1-.1,2.1l-.3-.4a1.2,1.2,0,0,0-.8-.4.7.7,0,0,0-.7.7.7.7,0,0,0,.4.9,2,2,0,0,0,2.8-.9,2.5,2.5,0,0,0-1.7-3.2,3.1,3.1,0,0,0-3.6,1,4,4,0,0,0-.3,4.2,3.8,3.8,0,0,0,3.9,1.9l-.6-1.4c0-.1.3-.3.5-.5h.1v.5c0,.6.4.9,1,.9a3.4,3.4,0,0,0,2.6-1.4,6.8,6.8,0,0,0,1.9-5.1v-.3a2.5,2.5,0,0,0-.2-.7c-.4,1.1-.8,2.1-2.3,1.6.1-.1.2-.3.4-.4a2.9,2.9,0,0,0-.5-4.2A8.2,8.2,0,0,0,59.6,25a14.3,14.3,0,0,1-6-2.7,4.9,4.9,0,0,1-1.7-4.2c0-.2.3-.3.4-.4a4.7,4.7,0,0,0,1.2-.7,1.4,1.4,0,0,0,0-.9c0-.1-.3-.2-.4-.2l-.6.7c-.1.1-.1.2-.1.4s-.7-.4.2-1.9l-.9,1.1-1.1,1.1c-.1.2-.5.1-.7.2v-.2l.9-1a7.9,7.9,0,0,1-2,.4,1.5,1.5,0,0,1-1.4-1.6,1.3,1.3,0,0,1,1.2-1.3,1.1,1.1,0,0,1,1.1.5.9.9,0,0,1-.2,1.1.9.9,0,0,1-.7.1c-.1,0-.1-.2-.2-.3l.4-.3c.3-.2.3-.4.1-.6s-.6-.2-.7,0a.9.9,0,0,0-.5.8,1.3,1.3,0,0,0,1.8.9l1.4-1.1A6.7,6.7,0,0,1,53,13.5c.7-.1,1,.1,1.2.7s.2.7.5.8,1.7,1.4,2.9,1.3.4.2.6.4.6.9,1,1.2,1.3.7,1.8-.1.2-.2.3-.1a1,1,0,0,1,.5.4.6.6,0,0,1-.5.8,5.8,5.8,0,0,1-1.4.3l1,1a1,1,0,0,1,.1,1.5l-.3-.4a2.1,2.1,0,0,0-1.5-1l-.9-.4a1.1,1.1,0,0,0-.2.6c-.2.4-.4.7-.9.7a1.2,1.2,0,0,1-1-.7c.9-.3,1.4-.7,1.5-1.6a2.1,2.1,0,0,0-.3-1.9c.2.8.4,1.6-.5,2.1H56l.4-.5a.9.9,0,0,0-.2-1.1.8.8,0,0,0-1,.3,2.3,2.3,0,0,0-.3,2.1,4.9,4.9,0,0,0,3,3.4l1.8.5c1.2.2,1.7-.2,2-1.3a1.1,1.1,0,0,1-.5,1.8,2.5,2.5,0,0,1-1.9.1l-2.8-1.2-.4-.2v-.2a5.7,5.7,0,0,1-1.6-2.2c-.1-.3-.1-.6-.2-.8H54a5.6,5.6,0,0,1,.4,1.2A3.9,3.9,0,0,0,56.2,23Zm-5.8-7-1.6.5a1.8,1.8,0,0,0,1.6-.5l1.4-1.3h-.1Zm6,6.7a5.7,5.7,0,0,1-1.9-2.9,4.1,4.1,0,0,0,1.1,2.3l.8.6c0,.1.1.2.2.3a6.2,6.2,0,0,0,3.6,1.2c.3.1.7-.1,1-.2h0a3.1,3.1,0,0,1-2.5-.1Zm8.5,8.2c1-.7.8-3.3-.5-3.9A3.1,3.1,0,0,1,64.9,30.9ZM53.1,19a5.1,5.1,0,0,0,1,3Zm-.4-.7a7.2,7.2,0,0,0,.7,3.3Zm12.9,12a2.3,2.3,0,0,0-.2-2.6A3.3,3.3,0,0,1,65.6,30.3Zm-12-10.9a5.7,5.7,0,0,0,1.1,2.9Zm-1.3-4.6h-.1l-1.5,2.1h.2Zm.1,3.4h-.2l.2,1.8h.2Zm5.7.3h.1L58,17.1h-.2Zm-6-1.8,1-1.3C52.6,15.7,52.1,16,52.1,16.7Zm7.1,2.5a1,1,0,0,0,.8,1.1Zm.9-.4c.6.2,1.1,0,1.2-.5Z" transform="translate(-0.1 1)" style="fill:#fff"/><path d="M57,74.3l1.1-.3a5,5,0,0,1,2.7-.5,1.4,1.4,0,0,1,1.3,1.1c.1.4,0,.7-.4.8s-.7-1.6-1.9-1.3a6.2,6.2,0,0,0-3.6,1.8,3.4,3.4,0,0,0-1.1,3.8c0,.1.1.2.1.4a.9.9,0,0,0,1.1.3.9.9,0,0,0,.2-1.1l-.3-.4a.6.6,0,0,1,.9-.1c.8.6.6,1.3.4,2.1a2.3,2.3,0,0,0,.3-2.1,1.7,1.7,0,0,0-1.5-1.3c.1-.6.6-.7.9-.8s.9.9,1.2,1.3l1-.4,1.3-.9.3-.4a.7.7,0,0,1,.1,1.2L60,78.7l1.5.4a1,1,0,0,1,.4.7l-.6.6c-.4-1-1.1-1.2-1.8-.6a4.9,4.9,0,0,0-1.1,1.4c-.3.3-.5.5-.9.4a1.5,1.5,0,0,0-1.3.5l-.3.2a2.1,2.1,0,0,0-1.7,1.8c0,.1-.4.3-.7.3a2.3,2.3,0,0,1-1.8-.9l-1.4-1.3a1.4,1.4,0,0,0-2.2.4.8.8,0,0,0,.4,1.1.5.5,0,0,0,.8-.2.8.8,0,0,0-.2-.4c-.1-.2-.3-.2-.4-.4s.1-.3.2-.3h.6c.4.2.4.6.3,1a1,1,0,0,1-1.1.7,1.5,1.5,0,0,1-1.2-1.5,1.6,1.6,0,0,1,1.4-1.5,7.1,7.1,0,0,1,2,.4l-.9-1a.9.9,0,0,1,1.2.3l1.3,1.7a1.2,1.2,0,0,0,.5.5l-.9-1.2c-.3-.5-.2-.8.4-1a.7.7,0,0,0,.1.5,1.7,1.7,0,0,0,.6.6c.1.1.4-.1.4-.2a1.1,1.1,0,0,0,0-.8,1.5,1.5,0,0,0-1.2-.8c-.3,0-.4-.1-.4-.4a5.2,5.2,0,0,1,2.8-5,24.9,24.9,0,0,1,6.5-2.2A5.9,5.9,0,0,0,64,71.2a2.9,2.9,0,0,0,.3-4.3l-.3-.3a1.3,1.3,0,0,1,1.5.2,7.3,7.3,0,0,1,1,1.3,12.1,12.1,0,0,0,0-1.9,7.2,7.2,0,0,0-3.2-5.1,3.2,3.2,0,0,0-1.4-.3c-.8,0-1,.3-1,1.1s0,.2.1.2a.7.7,0,0,1-.4-1.2l.7-.5a4.2,4.2,0,0,0-3.5.9,3.8,3.8,0,0,0,.1,5.7c1.6,1.1,4.3.5,4.8-1.2a2,2,0,0,0-.5-2.1,1.8,1.8,0,0,0-2.1-.5.9.9,0,0,0-.7,1c0,.5.3.7.8.8s.8-.4,1-.9a1.5,1.5,0,0,1,.7,1.2,1.4,1.4,0,0,1-1,1.1,2.5,2.5,0,0,1-2.6-.4,2.1,2.1,0,0,1-.4-2.6,3,3,0,0,1,1.7-1.6h.5l-.4.3a2.7,2.7,0,0,0-1.6,2.4,1.4,1.4,0,0,0,1,1.5A2.1,2.1,0,0,0,61,66a.7.7,0,0,0,.3-.9,5.3,5.3,0,0,1-1.2.3,1.2,1.2,0,0,1-1.1-.7,1.4,1.4,0,0,1,.2-1.4,2.4,2.4,0,0,1,2.8-.4,2.6,2.6,0,0,1,.2,4.3,3.8,3.8,0,0,1-4.3.3l-.4-.2h-.1L61,72.1c-.3.2-.3.2-.6-.1a10.6,10.6,0,0,0-1.7-2c.3.8.5,1.7.8,2.5h-.1a.8.8,0,0,1-.4-.4c-.3-.9-.5-1.8-.8-2.8l-.2-.5a19.4,19.4,0,0,1,.2,2.4,1,1,0,0,1-.9,1,1.2,1.2,0,0,1-1.1-.4,1.1,1.1,0,0,1-.1-1.3.9.9,0,0,1,.5-.3.4.4,0,0,1,.5.5c0,.2-.3.3-.5.5h-.2l.4.4c.3,0,.7-.1.7-.3a2.2,2.2,0,0,0,.2-1.4,27.8,27.8,0,0,0-1.2-3.8,4.6,4.6,0,0,1,.9-5.1,4.2,4.2,0,0,1,4-1.1h.9a2.5,2.5,0,0,0-1.4-.6l-3,.5a1.3,1.3,0,0,1-1.7-.9.9.9,0,0,1,.5-1.1.7.7,0,0,1,1,.2,1.9,1.9,0,0,1,.1.8c-.1,0-.5.1-.5,0a6.4,6.4,0,0,1-.2-.7c-.3-.1-.6.1-.5.6a.7.7,0,0,0,.9.7l1.2-.2,2.1-.5a2.3,2.3,0,0,0-2.5-.7h-.1l.6-.7c-.6-.3-1.6-.1-1.9-1.2l1,.5a6.1,6.1,0,0,1-.5-1.2A1.3,1.3,0,0,1,59,53.8a.7.7,0,0,1,.4,1.2h-.6c-.2-.2-.1-.4.1-.6h.2c-.2-.4-.5-.3-.8-.2a.7.7,0,0,0-.6,1,7.8,7.8,0,0,0,1,1.5,14.9,14.9,0,0,0,2,1.5c-.7-.8-.1-2.3-1.6-2.7h1.1c.1-.6-.4-1.2.1-1.8l.3.6c1.1-1.3,2.5-1.3,4-1.1a2.1,2.1,0,0,0,2-.3,2.2,2.2,0,0,0,.5-.8c.1-.1,0-.4-.1-.6h-.2c0,.1-.1.2-.1.3l-.6.2a.7.7,0,0,1-.1-.6c.1-.4.5-.4.9-.4a.7.7,0,0,1,.6.7c.2,1.1-.6,1.9-1.8,2h-.8c.8,1.2.3,2.2-.2,3.2a3.2,3.2,0,0,0-.2,1.4,1.4,1.4,0,0,0,1.3,1.1,1.2,1.2,0,0,0,1.2-.7c.2-.5-.1-.9-.7-.9h0v.7c-.2,0-.6,0-.6-.1a.9.9,0,0,1-.1-.7,1.2,1.2,0,0,1,1.1-.5,1,1,0,0,1,.8.8,1.5,1.5,0,0,1-.7,1.5,1.9,1.9,0,0,1-1.9,0,1.6,1.6,0,0,1-.9-1.5,3.4,3.4,0,0,0,.1-1h-.8A1.4,1.4,0,0,1,62,55.3a1,1,0,0,1,1.3-.9.7.7,0,0,1,.5.4.7.7,0,0,1-.3.6l-.6-.2a.1.1,0,0,1-.1-.1.7.7,0,0,0-.1,1.2,1.4,1.4,0,0,0,2-.4c.5-1.2,0-2.4-1.4-2.4s-3,1.1-2.6,3.1a6.1,6.1,0,0,0,2.1,3.3l1.9,1.9c.4-.7.3-1.7,1.3-1.4a7.5,7.5,0,0,0-.7,1.2,4.3,4.3,0,0,0,.4,1.4,20.3,20.3,0,0,1,1.1,2.6,5.8,5.8,0,0,1-3.9,6.8l-.5.2c1.2,0,2.1-.8,3.1-.5s-.5.7-1.3.7-2.8.2-4.1.5a28.1,28.1,0,0,0-3.1,1,4.8,4.8,0,0,0-2.8,3.9l.2-.3a5.5,5.5,0,0,1,2.4-3.4Zm1.4-.1c-1.8.2-3.9,2.5-3.7,4A5.6,5.6,0,0,1,58.4,74.2Zm6.7-7a3.4,3.4,0,0,1-.6,3.8A2.7,2.7,0,0,0,65.1,67.2ZM48.8,81.5c1.5-.1,2.1,1,3,1.8C51.1,82.1,49.8,81.1,48.8,81.5Zm5-3.1a14.2,14.2,0,0,1,.5-1.6,10.9,10.9,0,0,1,.8-1.5A4.8,4.8,0,0,0,53.8,78.4Zm-.4-1.8a4.4,4.4,0,0,0-.6,2.9Zm-.1,2.3.7-2.8A5.5,5.5,0,0,0,53.3,78.9ZM65.7,67.6a3.6,3.6,0,0,1-.2,2.7A2.4,2.4,0,0,0,65.7,67.6ZM50.9,80.9h-.1l1.5,2.3h.2Zm1.4-1.2h.2l.2-1.9h-.2Zm0,1.6c-.1.4.3,1,.9,1.2Zm6.9-2.5.9-1.2A1.2,1.2,0,0,0,59.2,78.8Zm2.3.8c-.3-.5-.9-.8-1.3-.5Zm-.3-5.7a1.8,1.8,0,0,0-1.9,0Zm-4,6.7a1,1,0,0,0,0-1.4Zm1.1-1.2h-.1l-.3,1.5h.2Z" transform="translate(-0.1 1)" style="fill:#fff"/><path d="M31.7,51.2a2.1,2.1,0,0,1-1.1,1,14.5,14.5,0,0,0-7,4.2,14.3,14.3,0,0,0-3.6,7,14,14,0,0,0,1.7,10.4A14.7,14.7,0,0,0,31.9,81a14.9,14.9,0,0,0,13.5-3.7,14,14,0,0,0,4.7-11.9,14.8,14.8,0,0,0-10.2-13,13.7,13.7,0,0,0-5.3-.8H34a.7.7,0,0,1,.7-.6A16.1,16.1,0,0,1,49.3,60a14.5,14.5,0,0,1,1.5,7.4,14.9,14.9,0,0,1-7,11.9A16.2,16.2,0,0,1,34.3,82a15.9,15.9,0,0,1-10.8-4.8,14.8,14.8,0,0,1-4.4-8.8,14.2,14.2,0,0,1,1.2-8.1,15.7,15.7,0,0,1,10.5-8.9Z" transform="translate(-0.1 1)" style="fill:#fff"/><path d="M35.8,46.4a1,1,0,0,1-.9.6A16.1,16.1,0,0,1,21,39a14.9,14.9,0,0,1-1.9-9.7A15.6,15.6,0,0,1,30.2,16.6a15,15,0,0,1,8.4-.3A15.7,15.7,0,0,1,47,21.4a14.6,14.6,0,0,1,3.7,9.4,15.2,15.2,0,0,1-4.6,11.7,15.8,15.8,0,0,1-7.4,4h-.4s-.1,0-.2-.2a3.3,3.3,0,0,1,1-.6,15.9,15.9,0,0,0,8-5.4,14.8,14.8,0,0,0-9.2-23.5,14.8,14.8,0,0,0-12.5,2.9,14,14,0,0,0-4.9,6.6,13.5,13.5,0,0,0-.1,9.5c2,5.9,6.3,9.2,12.4,10.3Z" transform="translate(-0.1 1)" style="fill:#fff"/><path d="M17.7,90.6c-.4-.5-.3-.8.8-2.8l-1.7-1h-.6V87l.5.3h-.4c-.2-.2-.5-.5-.4-.7s.4-.6.6-.6.7-.1.9-.4a.6.6,0,0,1,.7-.2l.6.5h-.1l-.4-.2h-.6a.5.5,0,0,0,0,.5,1.2,1.2,0,0,0,1.8.2,7,7,0,0,1,5.3-1.3,7.1,7.1,0,0,1,4,2.5l.8,1a4.5,4.5,0,0,0,.1-1.1,3,3,0,0,1,4-2.3,1.5,1.5,0,0,1,.5,2.5,1.1,1.1,0,0,1-1.9-.4c-.1-.1-.1-.1-.1-.2h-.2a3.8,3.8,0,0,0-.4,1.3,3.5,3.5,0,0,0,.8,2.9c.7.9,1.6,1.8,2.4,2.7s.4.2.7,0a8.2,8.2,0,0,0,3.2-4.7,2,2,0,0,0-.4-2c-.3.3-.5.6-.8.7a1,1,0,0,1-1.4-.2,1.4,1.4,0,0,1-.3-1.7,2.3,2.3,0,0,1,2-1,3.1,3.1,0,0,1,2.9,2.8c0,.2.1.5.1.7l1.8-1.9A6.3,6.3,0,0,1,47,85.6a5.5,5.5,0,0,1,3.8,1.5,1.1,1.1,0,0,0,1.6-.3.6.6,0,0,0,0-.6c0-.1-.4-.1-.6-.1l-.3.2h-.1l.6-.5c.2,0,.6.1.7.3s.4.3.7.3a.9.9,0,0,1,.7.5c.1.2-.1.5-.2.7h-.5l.4-.2c.1-.1,0-.3,0-.3h-.6l-.5.4-1.2.7c.2.4.5.8.7,1.3s.5.9.1,1.6-.1-.4-.2-.5a5.6,5.6,0,0,0-7.3-4,7.9,7.9,0,0,0-3.7,3,35.4,35.4,0,0,0-1.9,3.3,13.8,13.8,0,0,1-3.9,4.1h-.5a12.3,12.3,0,0,1-5-6,7.9,7.9,0,0,0-6.5-4.7A5.5,5.5,0,0,0,17.9,90,1.4,1.4,0,0,1,17.7,90.6Zm19-2.5a1.3,1.3,0,0,0,.1-.6.7.7,0,0,1,.9-.7,1.8,1.8,0,0,1,.9.6,3.3,3.3,0,0,1,.2,3.2A9.5,9.5,0,0,1,35.3,95a.6.6,0,0,1-.8,0l-2-2.1a6.1,6.1,0,0,1-1.6-3.2,2.8,2.8,0,0,1,.6-2.6,1.1,1.1,0,0,1,1.3-.2c.5.2.4.6.4,1s0,.1,0,.1a.8.8,0,0,0,.6-1.4A1.6,1.6,0,0,0,32,86a2.6,2.6,0,0,0-2,3.4,9.7,9.7,0,0,0,1.4,3.3,12.6,12.6,0,0,0,3.3,3.2c.2.2.4.2.7,0a11.5,11.5,0,0,0,3.8-4.4,6.9,6.9,0,0,0,.9-3.1,2.6,2.6,0,0,0-3.3-2.3,1.4,1.4,0,0,0-.9,1.2A1,1,0,0,0,36.7,88.1Z" transform="translate(-0.1 1)" style="fill:#fff"/><path d="M18.5,11.7c-.2.2-.4.5-.7.5s-.5-.1-.7-.3a.6.6,0,0,0-.6-.3.8.8,0,0,1-.7-.4.9.9,0,0,1,.1-.7c.2-.3.5-.2.9.1h-.4c-.2.1-.3.3-.4.4l.5.2c.1.1.2,0,.3-.1l1.4-.9a27.6,27.6,0,0,0-.8-2.7V7.2c.2.3.3.4.3.6a5,5,0,0,0,4.2,4,5.8,5.8,0,0,0,5.9-2,18.3,18.3,0,0,0,2.8-4.4,12.4,12.4,0,0,1,3.9-4,.4.4,0,0,1,.6,0,13.4,13.4,0,0,1,4.9,5.9A7.6,7.6,0,0,0,45,11.8a5.6,5.6,0,0,0,6.7-3l.5-1.4c.3.5,0,1-.1,1.4a7.6,7.6,0,0,1-.7,1.3l1.4,1h.8v-.3l-.7-.4c.3-.1.6-.2.7-.1s.4.6.3.7a.9.9,0,0,1-.7.5c-.3.1-.5.1-.7.4l-.7.3c-.2,0-.4-.3-.6-.5h.1l.4.2a.7.7,0,0,0,.6-.2,1.3,1.3,0,0,0-.1-.5,1.2,1.2,0,0,0-1.8-.2,6.2,6.2,0,0,1-4.6,1.4,6.6,6.6,0,0,1-4.8-2.9L40.5,9a9.5,9.5,0,0,1-.4,1.8,3,3,0,0,1-3.4,1.6,1.6,1.6,0,0,1-1.2-2.1,1.4,1.4,0,0,1,1.3-.9c.6,0,.8.2,1.2,1a2,2,0,0,0,.5-1.5,5,5,0,0,0-1.4-3.5L35.3,3.5c-.2-.2-.4-.2-.7,0a8.4,8.4,0,0,0-3.2,4.6,2.5,2.5,0,0,0,.4,2.2H32a1,1,0,0,1,1.2-.8,1.5,1.5,0,0,1,1.1.7,1.2,1.2,0,0,1-.2,1.5,2.3,2.3,0,0,1-3.3.3,3.2,3.2,0,0,1-1.5-3l-1.7,1.8a6.4,6.4,0,0,1-8.6.1c-.3-.3-.6-.2-.9-.1l-.8.7c0,.1.1.4.2.4H18c.2,0,.2-.2.4-.2ZM36.7,9.9a.9.9,0,0,0-.8,1.1,1.6,1.6,0,0,0,2,1,2.7,2.7,0,0,0,2-3.4A10.3,10.3,0,0,0,35.2,2a.5.5,0,0,0-.6.1,6,6,0,0,0-1.3.9,10.1,10.1,0,0,0-3.4,6,2.5,2.5,0,0,0,1.7,2.8c1.1.4,2,.1,2.3-.8a.8.8,0,0,0-.7-1.1v.2a.7.7,0,0,1-.6,1,1.3,1.3,0,0,1-1.3-.6,3.4,3.4,0,0,1-.3-2.4,8.7,8.7,0,0,1,3.8-5.2.6.6,0,0,1,.6,0,11,11,0,0,1,3.4,4.3,3.3,3.3,0,0,1,0,3.2,1.6,1.6,0,0,1-1.5.8A1,1,0,0,1,36.7,9.9Z" transform="translate(-0.1 1)" style="fill:#fff"/><path d="M37.8,47.8l7.3-2.4,4.6-1.5c.2-.1.5-.1.5.3L38,48v.2l3.3-.7L50,45.7c.5-.1.6-.1.6.4L38.1,48.4h0l4.3-.2,7.9-.6h.3l.3.3-.3.2H49.2l-9.4.4-1.7.2h.4l9.7.6,2.2.2c.2,0,.3.2.4.3l-.4.2-5.2-.5c-2.4-.2-4.7-.4-7.1-.4l1.1.2,10.6,2.1c.3.1.7.3.7.4s-.5.2-.8.1L38.8,49.8H38l1.9.6,9.7,3.1h.2l.2.5h-.4l-5-1.8-6.4-2.2h-.4l3.7,1.6,7.6,3.4c.1,0,.2.3.3.4h-.6l-7.9-3.8-3.2-1.4.8.5h0a3.7,3.7,0,0,0-1.8-.2c-.4-.1-.5-.3-.2-.6a2.6,2.6,0,0,0,.3-2.1c-.1-.1,0-.4.1-.5l1.6-.7-.4.3h0l1.1-.5,9.6-4.5h.7c-.1.1-.1.3-.2.3l-1.7.8-9.4,4.1-.4.2Z" transform="translate(-0.1 1)" style="fill:#fff"/><path d="M31.8,48.1l-3.1-1-8.6-2.7c-.3-.1-.5-.3-.2-.7l6,2.1,6.1,2h0l-2.5-1.1-8.7-3.9c-.4-.1-.6-.3-.2-.7L32,47.5h0l-.8-.5,2.2.4a10.9,10.9,0,0,0-.5,1.7,1.1,1.1,0,0,0,.1.5c.3.5,0,.8-.5,1l-1.2.5.6-.4h-.1L20.5,55.8c-.3-.3-.3-.5.1-.6l11.1-4.9.3-.2-2.9.9-8.7,2.9h-.8l.4-.4,7.3-2.2L31.4,50c.1-.1.2-.1.3-.3l-2,.4-10,2.1h-.2l-.4-.2.3-.3,2.9-.5,9.1-1.7c.1,0,.2,0,.3-.2l-12.8.9c-.1-.4,0-.6.4-.6l8-.3,3.9-.2c.2,0,.3,0,.4-.2l-3.4-.2-8.9-.6a.5.5,0,0,1-.4-.2l.4-.3,3.6.3,8.5.7h.3l-2-.4-10-2c-.1,0-.2,0-.2-.1l-.3-.3c.1,0,.3-.2.4-.1l3.8.8,7.8,1.7h.6Z" transform="translate(-0.1 1)" style="fill:#fff"/><path d="M36.6,71.8h-.3c.1.1.2.2.1.3l-.3.2-.8.2c.7,0,1.3,0,1.4.9a10.1,10.1,0,0,0,.7-1.5c.1-.2,0-.4,0-.6l-.3-1.2-.4-.6c-.1-.1-.1-.3-.2-.4H37l.3.2c.3.5.5,1.1.8,1.6a1.5,1.5,0,0,1,.3,1.4c-.4.8-.7,1.5-1.1,2.2s-.6.3-.8.5-1.6.2-2.5.3l.4-.5-.7.3h-.1l.5-.5h0l-.4.2a1.1,1.1,0,0,1-1.6-.1,4.1,4.1,0,0,1-1-3.2c0-.3.3-.6.5-.8s1-.6,1.2-1.2.5-.2.9-.4-.2.6-.3.6-.8,1.4-1.4,1.9-.1.1-.1.2l.9,2.2c.4-.7.7-1.4,1.6-1.2H33a2.4,2.4,0,0,1-.2-.9,2.1,2.1,0,0,1,2.7-1.9c.3,0,.6.5.8.7s-.1.3-.1.4S36.5,71.4,36.6,71.8Z" transform="translate(-0.1 1)" style="fill:#fff"/><path d="M33.7,27.2h-.4c0-.4.1-.8.1-1.2s.3-.5.7-.6l.4-.2c-.7.1-1.3,0-1.4-.9a3.6,3.6,0,0,0,.2,4.3c-.5.4-.6.3-.8-.2s-.6-.9-.8-1.4-.4-.9-.2-1.3a6,6,0,0,1,1-2.3,2.4,2.4,0,0,1,2.2-.8h1.1l-.4.5.8-.3h0l-.6.5h.1l.5-.3a1,1,0,0,1,1.4,0,4.7,4.7,0,0,1,.6.9c.3.7.4,1.4.6,2a1.3,1.3,0,0,1-.6,1.3c-.4.3-1,.6-1.2,1.2s-.5.2-.7.3l-.2-.2,1-1.1.8-1.2-.8-2.3c-.5.6-.8,1.4-1.7,1.2h.7c.8-.1,1.1.1.9.8a4.6,4.6,0,0,1-.9,1.7c-.5.8-2.3.4-2.6-.5S33.6,27.3,33.7,27.2Z" transform="translate(-0.1 1)" style="fill:#fff"/><path d="M34.7,44.9l-.3-2.3c-.2-1.8-.4-3.5-.5-5.2a14.2,14.2,0,0,1,.2-2.9c.1-1.2.3-2.5.5-3.7a1.7,1.7,0,0,1,.2-.5H35a1.4,1.4,0,0,0,.2.7c.2,2,.6,4.1.8,6.1a11.5,11.5,0,0,1-.3,2.6l-.6,4.8c0,.2-.1.3-.2.5Zm0-2.6h0V40.5h-.2Zm-.1-4.4c.2-.7.2-.8-.5-.6Zm.6,2.8H35v1.5h.1Zm-1.1-3.9c.7.1.7.1.6-.7Zm1,1.1h.1l.5-.7h-.6Z" transform="translate(-0.1 1)" style="fill:#fff"/><path d="M35.1,53a5,5,0,0,0,.2,1.2c.2,2.2.5,4.4.7,6.6a12.2,12.2,0,0,1-.3,2.6c-.2,1.2-.3,2.5-.5,3.7s-.2.3-.2.4-.3-.2-.3-.4c-.3-2.1-.7-4.2-.9-6.3a9.9,9.9,0,0,1,.3-2.4l.6-5c0-.2.1-.3.2-.5Zm-.3,7.1h-.2l-.4.6.4.2Zm0-4.5h-.1v1.6h.2Zm1,5.1-.7-.7C35,60.7,35,60.8,35.8,60.7Zm-.6-5h-.1v1.6h.2Zm-.7,6h.2c0-.3.1-.7-.6-.5Zm.5,0h.2l.4-.5-.5-.2Z" transform="translate(-0.1 1)" style="fill:#fff"/><path d="M6,87.9c-.3-.2-.5-.4-.7-.4a.8.8,0,0,0-.7.4,4.6,4.6,0,0,0-.7,2.6l.9-.2v.2H4.4a1,1,0,0,0-.3,1.5h.4A1.5,1.5,0,0,1,6,94.4c-.1.3,0,.4.2.5s.5.3.7,0,.8-.8,1.5-.5H9.5a1.1,1.1,0,0,1,1.1.5c.1.4.5.1.7,0l.6-.2V95l-.9.5.8.5h-.1l-.8-.2h-.7a7.1,7.1,0,0,1-2.9,0c-.4-.2-.7,0-1.1.2a2.1,2.1,0,0,1-2.4.3,2,2,0,0,1-1.3-2.1,2.3,2.3,0,0,1,.7-1.4,1.2,1.2,0,0,0,.3-1.1c-.3-1-.1-.8-1-.7v-.2c.7-.1.8-.6.8-1.1a11.7,11.7,0,0,1,.6-2,1,1,0,0,0-.5-1.2.8.8,0,0,0-.7.1.8.8,0,0,0,0,.7c.1.2.3.3.5.5a.8.8,0,0,1-1-.6.9.9,0,0,1,.5-1.1c.7-.2,1.2.2,1.6.9a5.8,5.8,0,0,1,1.4.3.8.8,0,0,1,.2,1.3,2.1,2.1,0,0,1-.8,0c-.1,0-.1-.3-.2-.5Zm-.7,6.9-1.5-2a1.8,1.8,0,0,0-.9,1.6,2.1,2.1,0,0,0,1.7,1.8,1.6,1.6,0,0,0,1.7-.7c-.4-.4-.7-.7-1.3-.3H4.5Zm1.8.5a5,5,0,0,0,3.2,0,.7.7,0,0,0-.7-.5H8.2C7.6,94.5,7.3,94.7,7.1,95.3Zm-3-2.7,1.4,1.8a1,1,0,0,0,.3-1.3C5.4,92.5,5,92.3,4.1,92.6Z" transform="translate(-0.1 1)" style="fill:#fff"/><path d="M2.5,7l.8-.3c.1-.5.5-1,0-1.4A2.1,2.1,0,0,1,3,2.2a2.4,2.4,0,0,1,3.3-.3.9.9,0,0,0,1,.2,7.1,7.1,0,0,1,2.9,0h.7l.8-.3v.2l-.7.5.8.4c-.2.2-.2.2-1.1-.1h-.1a1.2,1.2,0,0,1-1.4.7l-1.5.2H7.2c-.1,0-.1-.1-.2-.2s-.5-.6-1.1-.1a.4.4,0,0,0,.1.3A1.5,1.5,0,0,1,4.6,5.7c-.7,0-.7.3-.8.7s.2.7.6.9h.3v.2H3.8a5.4,5.4,0,0,0,.8,2.8c.2.1.5.3.7.2l.6-.5H5.1C5,9.8,5,9.4,5,9.4s.5-.3.7-.2a.6.6,0,0,1,.4,1.1,1.3,1.3,0,0,1-1.5.5c-.4.3-.6.7-1,.9a.9.9,0,0,1-1.1-.1,1.7,1.7,0,0,1-.1-1c0-.4.4-.6,1-.5l-.5.3a1.9,1.9,0,0,0-.2.8c0,.1.4.3.5.2a.8.8,0,0,0,.7-.4,1.7,1.7,0,0,0,0-1,20.5,20.5,0,0,0-.5-2.4L3,7.3ZM3.7,5.1A9.7,9.7,0,0,1,4.8,3.6c.4-.5.4-.5-.2-.7H4.4c.2-.1.4-.2.5-.1a1,1,0,0,0,1.3-.3,1.7,1.7,0,0,0-1.8-.7A1.9,1.9,0,0,0,2.9,3.3,1.7,1.7,0,0,0,3.7,5.1Zm6.5-2.5a5.3,5.3,0,0,0-3.3,0c.5.8.5.8,1.3.6H9.4C9.8,3.1,10.1,3,10.2,2.6Zm-4.8.8L4,5.2a1.2,1.2,0,0,0,1.6-.3A1.1,1.1,0,0,0,5.4,3.4Z" transform="translate(-0.1 1)" style="fill:#fff"/><path d="M66.4,10.2c.7,0,1,.2,1,.7a.7.7,0,0,1-.6.9c-.6.3-1-.1-1.4-.8l-1.6-.4a.8.8,0,0,1,0-1.3h.8c.1,0,.1.4.1.4l-.8.2.5.5a.8.8,0,0,0,.9-.5l.6-1.9a2,2,0,0,1,.1-.7l-1,.2c.4-.3.8-.5.9-.7s-.1-.7-.1-1l-1.3-.2a1.5,1.5,0,0,1-.8-2.1c.1-.2.2-.4-.1-.6s-.6-.2-.8.2-.7.6-1.2.4H60.1l-.6-.3a.6.6,0,0,0-1-.3l-.5.2h-.1l.8-.6L58,2V1.8l.7.2a1.1,1.1,0,0,0,.8.1,7.2,7.2,0,0,1,2.9.1.8.8,0,0,0,.9-.2,2.3,2.3,0,0,1,3.4.4,2.3,2.3,0,0,1-.2,2.8.7.7,0,0,0-.4.5,2.5,2.5,0,0,0,.2,1.2h.9l-.8.4c-.3,1-.5,1.9-.7,2.8s0,1.2.4,1.3.7,0,.7-.2a.9.9,0,0,0,0-.7A1,1,0,0,0,66.4,10.2Zm-1.8-7,1.5,2a1.9,1.9,0,0,0,.7-2,1.9,1.9,0,0,0-1.5-1.4,1.6,1.6,0,0,0-1.8.7c.4.3.7.6,1.3.3h.5Zm-5.1-.6c.2.4.3.5.7.5l1.5.2c.7.1.8.1,1-.6A5,5,0,0,0,59.5,2.6Zm5.7,2.9c.3,0,.4-.2.3-.4a6.4,6.4,0,0,0-1-1.3c-.3-.3-.5-.2-.6.2A1.3,1.3,0,0,0,65.2,5.5Z" transform="translate(-0.1 1)" style="fill:#fff"/><path d="M58.2,96l.8-.5-.9-.5h.6c.4.3.7.3.9-.2l.6-.3,2.1-.3a.5.5,0,0,1,.4.2c.3.2.4.5.6.7s.8-.3.6-.9a1.5,1.5,0,0,1,1.5-2.1h.5c.4-1,.4-1.2-.6-1.7h.8a4.1,4.1,0,0,0-.9-2.8c-.4-.5-.9-.3-1.1.4h.3l.5.2c-.1.2-.2.5-.3.5l-.8-.2a.6.6,0,0,1,.1-1,1.3,1.3,0,0,1,1.5-.3l.3-.6a1.2,1.2,0,0,1,1.5-.4,1.5,1.5,0,0,1,.4.9c0,.4-.4.7-1,.6l.4-.2c.1-.3.3-.5.2-.8s-.4-.3-.6-.3a1.4,1.4,0,0,0-.7.6,4.1,4.1,0,0,0,.1,1.1l.6,2.2c0,.1.1.2.2.3l.6.4h-.8a6.9,6.9,0,0,0-.2,1.3l.2.4a2.2,2.2,0,0,1,.7,2.5,2.1,2.1,0,0,1-2,1.4,2.1,2.1,0,0,1-1.8-.6.6.6,0,0,0-.7-.2,6.5,6.5,0,0,1-3.1.1H59l-.8.3Zm5.5-.6a1.7,1.7,0,0,0,1.9.8,2,2,0,0,0,1.5-1.8,1.5,1.5,0,0,0-.9-1.6l-1.4,2,.8.3H65C64.4,94.8,64.1,95.2,63.7,95.4Zm-4-.1a5,5,0,0,0,3.2,0c-.2-.7-.4-.8-1-.7l-1.5.2C60,94.8,59.8,94.9,59.7,95.3Zm6.1-2.7a1.2,1.2,0,0,0-1.5.4,1,1,0,0,0,.2,1.4A4.6,4.6,0,0,0,65.8,92.6Z" transform="translate(-0.1 1)" style="fill:#fff"/><path d="M37.2,29l.3.4a21.7,21.7,0,0,1,.7,2.4,1.8,1.8,0,0,1-.1,1c-.1.5-.4,1.1-.5,1.7a4.1,4.1,0,0,0,0,2.2.6.6,0,0,1,.1.4c0,.1-.1.2-.2.3l-.3-.2a1.4,1.4,0,0,1-.3-1.7c.1-.2,0-.5,0-.7a18,18,0,0,1-.2-2.2c0-.6-.6-.9-.8-1.4a9.8,9.8,0,0,1-.5-1.6c-.1-.1.1-.3.2-.3Z" transform="translate(-0.1 1)" style="fill:#fff"/><path d="M32.4,62a1.4,1.4,0,0,1-.2-.7,1.3,1.3,0,0,1-.1-.6l.2-.2.3.2c.3.5.7,1,.3,1.7s0,.5,0,.7a16.4,16.4,0,0,0,.2,2.3c.2.5.6.9.8,1.4a4.4,4.4,0,0,1,.5,1.5c.1.1-.1.3-.2.3l-1.3.2a.5.5,0,0,1-.7-.4l-.6-2.3a2.2,2.2,0,0,1,.1-1.1c.2-1,.5-1.9.8-2.9Z" transform="translate(-0.1 1)" style="fill:#fff"/><path d="M31.8,37.1c.1-.1.1-.3.2-.5a2.3,2.3,0,0,0,.3-2.7,3.4,3.4,0,0,1-.1-3.1c.1-.2.1-.4.2-.6s.5-1.2,1.8-1,.4.4.3.7a2.3,2.3,0,0,1-1,1.7,1.3,1.3,0,0,0-.2,1.2,2.8,2.8,0,0,1-.1,1.8,2.5,2.5,0,0,0-.2,1.2.7.7,0,0,1-.5,1l-.6.4Z" transform="translate(-0.1 1)" style="fill:#fff"/><path d="M38,60.8c-.1.1-.1.3-.2.4a2.6,2.6,0,0,0-.3,2.8,3,3,0,0,1,.2,2.6,8.3,8.3,0,0,1-.4,1.5,1,1,0,0,1-1.1.7c-1-.1-1.2-.5-.7-1.4a3.6,3.6,0,0,1,.7-1,1.2,1.2,0,0,0,.3-1.3,2.2,2.2,0,0,1,.1-1.6c.3-.3.2-.9.2-1.4s0-.8.5-1l.6-.4Z" transform="translate(-0.1 1)" style="fill:#fff"/><path d="M38,74.8l.5.2h0l-.4-.3h.4l-.2-.3h.2a1,1,0,0,1,1,1.3c-.1.4,0,.5.3.6a2.1,2.1,0,0,1,1.4,1.6v.8l-2.6-.7a2.3,2.3,0,0,1-1.8-1.5.4.4,0,0,1-.1-.3.3.3,0,0,1,.1-.2,2.8,2.8,0,0,0,3,1.9,8.5,8.5,0,0,1-1.7-.6A1.8,1.8,0,0,1,37,75.6l.4.6v-.7l.4.2h.1l-.3-.4h0l.5.2h0l-.3-.4h.4Z" transform="translate(-0.1 1)" style="fill:#fff"/><path d="M32.4,22.4l-.6-.4h-.1l.8.5-.7.3v.3l-.5-.2.3.5-.7-.2h0l.6.4c-.6.3-1.2,0-1.2-.5a1.5,1.5,0,0,0-1-1.6,1.7,1.7,0,0,1-.6-2c1.1.5,2.5.3,3.5,1.2a1.8,1.8,0,0,1,.8,1.4,3,3,0,0,0-3-1.8c1.3.2,2.4.6,2.8,2l-1-1.2h-.2l.8.7h-.1l-.8-.6h0l.9.8Z" transform="translate(-0.1 1)" style="fill:#fff"/><path d="M30.4,77.7A3.5,3.5,0,0,0,33,75.4a2.2,2.2,0,0,1-.8,1.8,5,5,0,0,1-2.4.9l-1.1.2a1.4,1.4,0,0,1,.8-2.1c.5-.2.8-.3.5-.9s.1-1,1-1.2l-.2.3.4.6h.2l-.6.7h.1l.7-.7h.1l-.5.8h.1l.3-.3.3-.4a2.8,2.8,0,0,1-1.2,1.6c.7-.2,1.1-.9,1.5-1.5a2.7,2.7,0,0,1-1.7,1.9h.1a2.8,2.8,0,0,0,1.1-.8l.9-1A3.2,3.2,0,0,1,30.4,77.7Z" transform="translate(-0.1 1)" style="fill:#fff"/><path d="M39.1,22.4l-.5.4h-.1l.5-.5h-.1l-.5.5h-.1l.8-.9H39l-1.2,1.3a3.9,3.9,0,0,1,1.3-1.7c-.7.2-1.1.9-1.5,1.4a3,3,0,0,1,1.7-1.8h-.1a4.1,4.1,0,0,0-1.1.7l-.9,1.1a3.2,3.2,0,0,1,2.3-2.2,1.9,1.9,0,0,0-1.6.8,17.1,17.1,0,0,0-1.1,1.4,2.4,2.4,0,0,1,1.6-2.2l2.7-.7a1.5,1.5,0,0,1-.8,2.2c-.5.1-.8.3-.5.9s-.2,1-1,1.2l.5-.6h0l-.5.3C38.7,23.1,38.7,23.1,39.1,22.4Z" transform="translate(-0.1 1)" style="fill:#fff"/><path d="M25.2,91a2.8,2.8,0,0,1-.3,2.8h.7v.2l-.9.8c.2.9,0,1.2-.7,1.2s-.5-1.3-1.3-1l.3,1.2c0,.1-.4.2-.6.2a5.6,5.6,0,0,0-.4-1.2l-.8-.2c.2.5.5,1,0,1.3h-.5c.1-.9-.1-1.2-.9-1.7a5,5,0,0,1-2.1-2.2c-.1-.1-.1-.4-.1-.5h.2c.1.2.1.4.3.6A3.9,3.9,0,0,0,24,94.1a2.7,2.7,0,0,0,1.1-2.5v-.4A.3.3,0,0,1,25.2,91ZM25,94.3h0l-1.4.6c.8,0,.7.5.8.9h.1l-.2-1Z" transform="translate(-0.1 1)" style="fill:#fff"/><path d="M47,2.9c0-.5-.1-.9-.1-1.3s.4-.1.5-.2a3.4,3.4,0,0,0,.4,1.2c.1.2.5.2.6.2s0-.8.1-1.2.4-.1.7-.2A1.3,1.3,0,0,0,50,3.2a4.3,4.3,0,0,1,2.1,2.3c.1.1,0,.3,0,.4C51,4.1,49.7,2.7,47.4,3.2a2.8,2.8,0,0,0-2.1,1.3,10.1,10.1,0,0,0-.7,2.3,2.8,2.8,0,0,1,.3-2.6L44.3,4c0-.1,0-.1.1-.2s.9-.7.7-1.5.3-.5.8-.4S46.4,3.2,47,2.9Zm-2.1.7H45l1-.4-.5-1h-.1l.2.9Z" transform="translate(-0.1 1)" style="fill:#fff"/><path d="M25.6,4h-.8a3.1,3.1,0,0,1,.3,2.8H25V6.3c.1-2.1-1.4-3-3.1-3.2A4,4,0,0,0,18,5.4a.6.6,0,0,0-.1.4c-.1,0-.2.1-.3,0a.3.3,0,0,1-.1-.2l.3-.6A4.8,4.8,0,0,1,20,3a1.3,1.3,0,0,0,.6-1.6h.7a4.9,4.9,0,0,0,.1,1.2c.6.2,1-.3.9-1.3s.5,0,.6.2.2.6-.3,1.2,1.1.1,1.3-.9.9.2.7,1.2a1,1,0,0,1,.5.4Zm-2.1-.9,1.4.6h0l-.7-.4.2-.9h-.2C24.2,2.7,24.1,3.1,23.5,3.1Z" transform="translate(-0.1 1)" style="fill:#fff"/><path d="M52.3,92.1a.9.9,0,0,1-.1.5,4.7,4.7,0,0,1-2,2.2c-.6.3-1.1.6-.9,1.4l-.3.3a.4.4,0,0,1-.4-.3,1.4,1.4,0,0,1,.1-.9c-.7-.3-1,0-1,1.2s-.6,0-.7-.2.3-.8.4-1.2-1.3,0-1.4.9-.9-.2-.7-.7,0-.6-.4-.8l-.5-.5.7-.2a3.1,3.1,0,0,1-.2-2.8v.6c-.1,2.1,1.5,3.2,3.5,3.2A3.8,3.8,0,0,0,52,92.3l.2-.3Zm-7.2,2.1h0l.6.4v1.1l.6-1.1Z" transform="translate(-0.1 1)" style="fill:#fff"/><path d="M35.9,77.4c0,.2.1.4,0,.5a.8.8,0,0,1-.2.5l-1.4.2c-.9-.1-1-.3-.8-1.1a3.7,3.7,0,0,0,.1-1.1.9.9,0,0,1,1-.9c.6,0,1.1.2,1.2.8s.1.7.2,1.1Z" transform="translate(-0.1 1)" style="fill:#fff"/><path d="M33.9,20.8a.1.1,0,0,1,.1-.1c0-.4-.4-1,.2-1.2a2.3,2.3,0,0,1,2,0c.1.1.3.2.3.4l-.3,1.6a1.1,1.1,0,0,1-1.3.9,1,1,0,0,1-.9-1.1A.7.7,0,0,1,33.9,20.8Z" transform="translate(-0.1 1)" style="fill:#fff"/><path d="M34.9,50.6a1.7,1.7,0,1,1,.1-3.3,1.7,1.7,0,1,1-.1,3.3Zm-1.2-1.7a1.3,1.3,0,0,0,1.2,1.3A1.3,1.3,0,0,0,36.1,49a1.2,1.2,0,0,0-1.2-1.2A1.1,1.1,0,0,0,33.7,48.9Z" transform="translate(-0.1 1)" style="fill:#fff"/></svg>