<svg id="Capa_1" data-name="Capa 1" xmlns="http://www.w3.org/2000/svg" viewBox="0 0 301.3 301.3"><title>Cable</title><path d="M374.3,444.6H571.6V745.9H270.3V444.6h96c-10.9,4.2-15.1,12.1-14.9,23.7.5,27.1.2,54.1.2,81.2v6.9H389v-7.5c0-26.9-.3-53.7.1-80.5C389.3,456.7,385.3,448.7,374.3,444.6ZM532.8,744.3V624.5a78.5,78.5,0,0,0-1-11.9c-3.9-27.1-26.4-44.7-54.2-42.7-25,1.8-44.7,24-44.7,50.1s.1,49.8-.1,74.6c0,12.8-9.8,23.7-21.6,24.7-14.4,1.2-25.5-6.2-27.7-19.9-1.3-8.5-.5-17.2-1.1-25.9-.4-4.4,1.3-6.4,5.2-8.5,12.8-6.6,19.1-17.5,20-32.2H332.9c1.1,17.1,9.7,28.3,25.2,35,0,10-.3,20,.1,29.9.8,25.1,22.2,46.1,47.3,46.8,29.1.9,51.7-20.9,52-50.4.2-24.4-.2-48.8.1-73.2.1-15.2,11-26.4,25.1-26.6s24.9,11.6,24.9,27.1V744.3ZM407.6,594c0-4.7.2-8.6,0-12.6-.4-6.7-5.2-11.5-12.1-11.5-16.8-.2-33.6-.2-50.5,0a11.7,11.7,0,0,0-11.9,10.2c-.4,4.6-.1,9.1-.1,13.9Zm-74.4,25h74V607.7h-74Z" transform="translate(-270.3 -444.6)" style="fill:#fff;opacity:0"/><path d="M374.3,444.6c11,4.1,15,12.1,14.8,23.8-.4,26.8-.1,53.6-.1,80.5v7.5H351.6v-6.9c0-27.1.3-54.1-.2-81.2-.2-11.6,4-19.5,14.9-23.7Z" transform="translate(-270.3 -444.6)"/><path d="M532.8,744.3H507.6V621.4c0-15.5-10.8-27.2-24.9-27.1s-25,11.4-25.1,26.6c-.3,24.4.1,48.8-.1,73.2-.3,29.5-22.9,51.3-52,50.4-25.1-.7-46.5-21.7-47.3-46.8-.4-9.9-.1-19.9-.1-29.9-15.5-6.7-24.1-17.9-25.2-35h74.7c-.9,14.7-7.2,25.6-20,32.2-3.9,2.1-5.6,4.1-5.2,8.5.6,8.7-.2,17.4,1.1,25.9,2.2,13.7,13.3,21.1,27.7,19.9,11.8-1,21.6-11.9,21.6-24.7.2-24.8.1-49.7.1-74.6s19.7-48.3,44.7-50.1c27.8-2,50.3,15.6,54.2,42.7a78.5,78.5,0,0,1,1,11.9V744.3Z" transform="translate(-270.3 -444.6)"/><path d="M407.6,594H333c0-4.8-.3-9.3.1-13.9A11.7,11.7,0,0,1,345,569.9c16.9-.2,33.7-.2,50.5,0,6.9,0,11.7,4.8,12.1,11.5C407.8,585.4,407.6,589.3,407.6,594Z" transform="translate(-270.3 -444.6)"/><path d="M333.2,619V607.7h74V619Z" transform="translate(-270.3 -444.6)"/></svg>