<svg id="Capa_1" data-name="Capa 1" xmlns="http://www.w3.org/2000/svg" viewBox="0 0 466 460"><title>MesaSonido</title><path d="M659,404V864H193V404Z" transform="translate(-193 -404)" style="fill:#fff;opacity:0"/><path d="M632.3,495.5a21.1,21.1,0,0,0-21.1-21.1H240.8a21.1,21.1,0,0,0-21.1,21.1V773.3a21,21,0,0,0,21.1,21.1H611.2a21,21,0,0,0,21.1-21.1Zm-287.6-.7a11.6,11.6,0,1,1-11.6,11.6A11.6,11.6,0,0,1,344.7,494.8Zm0,46.3a11.6,11.6,0,1,1-11.6,11.6A11.6,11.6,0,0,1,344.7,541.1Zm-46.3-46.3a11.6,11.6,0,1,1-11.6,11.6A11.6,11.6,0,0,1,298.4,494.8Zm0,46.3a11.6,11.6,0,1,1-11.6,11.6A11.6,11.6,0,0,1,298.4,541.1Zm-46.3-46.3a11.6,11.6,0,1,1-11.6,11.6A11.6,11.6,0,0,1,252.1,494.8Zm0,46.3a11.6,11.6,0,1,1-11.6,11.6A11.6,11.6,0,0,1,252.1,541.1Zm0,46.3A11.6,11.6,0,1,1,240.5,599,11.6,11.6,0,0,1,252.1,587.4Zm11.1,127v46.4c0,6.2-4.5,11.1-10.6,11.1h-.3c-6.1,0-11.5-4.9-11.5-11.1V714.4h.2a10.6,10.6,0,0,1-.1-21.1h-.1V668c0-6.2,5.4-11.1,11.5-11.1h.3c6.1,0,10.6,4.9,10.6,11.1v25.3a10.6,10.6,0,0,1,0,21.1Zm35.2-127A11.6,11.6,0,1,1,286.8,599,11.6,11.6,0,0,1,298.4,587.4Zm22.4,171.9v1.5c0,6.2-4.2,11.1-10.3,11.1h-.3c-6.1,0-11.9-4.9-11.9-11.1v-1.5h.2a10.6,10.6,0,0,1,0-21.1h-.2V668c0-6.2,5.8-11.1,11.9-11.1h.3c6.1,0,10.3,4.9,10.3,11.1v70.3a10.5,10.5,0,0,1,0,21ZM333.1,599a11.6,11.6,0,1,1,11.6,11.5A11.6,11.6,0,0,1,333.1,599Zm47.1,97.1h-1.9v64.7c0,6.2-3.8,11.1-10,11.1h-.2c-6.1,0-12.3-4.9-12.3-11.1V696.1c-4.2-.3-9.8-4.9-9.8-10.5s5.6-10.1,9.8-10.5V668c0-6.2,6.2-11.1,12.3-11.1h.2c6.2,0,10,4.9,10,11.1v7.1h1.9a10.5,10.5,0,0,1,0,21ZM391,610.5a11.6,11.6,0,0,1,0-23.1,11.6,11.6,0,1,1,0,23.1Zm0-46.3a11.6,11.6,0,0,1,0-23.1,11.6,11.6,0,1,1,0,23.1Zm0-46.3a11.6,11.6,0,1,1,11.6-11.5A11.5,11.5,0,0,1,391,517.9Zm46.5,196.5h-.3v46.4a10.9,10.9,0,0,1-11,11.1H426a11.2,11.2,0,0,1-11.2-11.1V714.4a10.5,10.5,0,0,1,0-21V668A11.2,11.2,0,0,1,426,656.9h.2a10.9,10.9,0,0,1,11,11.1v25.3h.3a10.6,10.6,0,0,1,0,21.1Zm-.2-103.9a11.6,11.6,0,0,1,0-23.1,11.6,11.6,0,1,1,0,23.1Zm0-46.3a11.6,11.6,0,0,1,0-23.1,11.6,11.6,0,1,1,0,23.1Zm0-46.3a11.6,11.6,0,1,1,11.6-11.5A11.5,11.5,0,0,1,437.3,517.9Zm57.5,217.5v25.4c0,6.2-4.5,11.1-10.7,11.1h-.2c-6.1,0-11.6-4.9-11.6-11.1V735.4h.2a10.5,10.5,0,0,1,0-21h-.2V668c0-6.2,5.5-11.1,11.6-11.1h.2c6.2,0,10.7,4.9,10.7,11.1v46.4a10.5,10.5,0,1,1,0,21ZM554.2,713h-1.9v47.8c0,6.2-4.2,11.1-10.3,11.1h-.2c-6.2,0-12-4.9-12-11.1V712.9a10.5,10.5,0,0,1,0-20.9V668c0-6.2,5.8-11.1,12-11.1h.2c6.1,0,10.3,4.9,10.3,11.1v23.9h1.9a10.6,10.6,0,0,1,0,21.1Zm19.5-195.1c-8.5,0-15.8,6.9-15.8,15.3v77.3H528.4V580.2c0-8.8-6.6-16-15.5-16h-.3c-8.8,0-16.4,7.2-16.4,16v30.3H472.3V494.1H611.2V610.5H588.8V533.2c0-8.4-6.4-15.3-14.8-15.3Zm38,241.4h-1.9v1.5c0,6.2-3.8,11.1-9.9,11.1h-.2c-6.2,0-12.3-4.9-12.3-11.1v-1.5c-4.2-.4-9.8-4.9-9.8-10.5s5.6-10.2,9.8-10.5V668c0-6.2,6.1-11.1,12.3-11.1h.2c6.1,0,9.9,4.9,9.9,11.1v70.2h1.9a10.6,10.6,0,0,1,0,21.1Z" transform="translate(-193 -404)" style="fill:#070308"/></svg>