<svg id="Capa_1" data-name="Capa 1" xmlns="http://www.w3.org/2000/svg" viewBox="0 0 586.6 579.6"><title>Microfono</title><path d="M714.8,305.5V885.1H128.2V305.5Z" transform="translate(-128.2 -305.5)" style="fill:#fff;opacity:0"/><path d="M309,875.3c-10.1-4.4-17-10.9-16.4-23,.5-9.4,8.1-18.1,17.5-19.5a50.2,50.2,0,0,1,8.7-.6h80.5v-43c-14.4-3.7-28.8-6.6-42.7-11.2-34.7-11.3-62.4-32.7-85.6-60.6-20.9-25.3-34.9-54.1-39.9-86.4-2.7-17-2.4-34.4-3.1-51.7-.4-9.4-.3-18.9.2-28.3.6-11.5,10.3-19.8,22.1-19.6a21,21,0,0,1,20.4,20.1c.5,17.8.3,35.7,1,53.5,1.4,38.5,17.2,70.8,44.3,97.8,24.4,24.2,53.7,39,88,42.4,49.1,4.9,91.4-9.7,126-45.6,23.3-24.2,37.6-52.9,40.7-86.5,1.7-17.5.9-35.2,1.3-52.9,0-3.4-.1-6.9.2-10.3,1-10.1,10.5-18.4,21-18.5s21.1,7.9,21.3,17.9c.6,32.7,2.7,65.5-6,97.6-11.9,43.2-36.7,77.5-72,104.5-25.7,19.7-55,31.4-87.2,35.6l-4.2.9-1.7.5v43.8h6.5c25.1,0,50.2-.3,75.3.2,5.4,0,11.6,1.2,15.9,4.1,14.1,9.5,11.9,29.6-3.4,36.9l-3.8,1.9Z" transform="translate(-128.2 -305.5)"/><path d="M528.9,525.5v39.7h-6.1c-15.8,0-31.7-.1-47.5,0-9.8,0-16.7,6.5-16.8,15.5s6.4,15.4,16.2,15.5c15.8.2,31.6.1,47.5.1h6.6c-.1,35.4-14.5,63.5-41.7,84.4-36.1,27.6-75.9,31-115.7,10-36.7-19.3-56.3-51.2-57.5-94.4h6.2c16.9,0,33.8.2,50.8-.2,11.3-.2,18.2-10.6,14.4-20.9-2.2-6.1-8-10-15.3-10-16.6-.1-33.2,0-49.7,0h-6.2V525.5h6.1c16.4,0,32.8.2,49.2-.1,12.4-.1,19.7-9.8,16.1-20.6-2.2-6.5-8-10.5-15.6-10.5H313.7V455.1c0-3.9,3-3,5.1-3,17-.1,33.9-.1,50.8,0,7.3,0,12.8-3,15.6-9.7,4.3-10.3-3.1-21.2-14.5-21.3-16.7-.2-33.5-.1-50.2-.1h-6.4c1.6-39.6,19.3-69.4,52.1-89.2,36.7-22.1,75-21.9,111.5.6,32.2,19.8,49.7,49.4,51.1,88.6H475.4c-9.9.1-16.8,6.4-16.9,15.4s6.6,15.5,16.6,15.6c16.2.1,32.4.2,48.6,0,4.2-.1,5.7,1,5.6,5.4-.3,12-.1,24-.1,36.8H523c-16.2,0-32.4-.1-48.5.1a15.8,15.8,0,0,0-15.9,13.1c-1.1,6.8,2.8,14.3,9.5,16.7a31,31,0,0,0,9.6,1.4c14.9.1,29.8,0,44.8,0Z" transform="translate(-128.2 -305.5)"/></svg>