<svg id="Capa_1" data-name="Capa 1" xmlns="http://www.w3.org/2000/svg" viewBox="0 0 484.6 1008.1"><title>TorreRadio</title><path d="M390.1,1058.2,364,1043.8c-4.4-2.4-8.8-4.9-13.3-7.1s-11.8-17.7-11.5-21.2c4.2-40.9,8.5-81.8,12.6-122.7a8.5,8.5,0,0,0-.5-4.8c-8.4-15.3-16.9-30.5-25.7-46.3l-11.5,7.5c-18.8,12.5-37.7,25-56.4,37.8a12.5,12.5,0,0,0-4.6,6c-6.4,18-12.9,36-18.8,54.2-2.6,8.1-6.8,14.3-14.9,17.4,0,0-5.8-1.2-24.5-19.9S226,832,247,781c.1-.4,18.4-45.2,19.3-47.3q26.7-65,53.3-129.7c12.1-29.4,24.3-58.8,36.1-88.3,1.8-4.4,4.3-6.3,8.7-6.4s8.2-2.4,10.7-7.1a74.6,74.6,0,0,0,8.8-36c-.1-5,1.3-8.7,5.2-11.7a7.3,7.3,0,0,0,2.7-4.4c3.2-26.1,6.2-52.2,9.3-78.4,1.4-12.4,2.7-24.8,4.4-37.2.5-3.3-.1-4.9-3.1-6.7a14.6,14.6,0,0,1-6.6-17.2c2-6.7,7.5-11.1,14.2-11.3a15.3,15.3,0,0,1,15.3,10.6c3.4,9.6-2.9,18.9-13.3,19.6-.1.3-.4.7-.3.8,8.4,7.5,5.4,17.7,6.1,26.7,2.4,30.9,4,61.9,6.1,92.8a8.3,8.3,0,0,0,2.7,5.2,10.5,10.5,0,0,1,3.8,9.7c-1.7,16,2.2,30.7,9.5,44.8,2.1,4,4.6,7.1,9,8.6,1.5.6,2.7,2,4.8,3.5-2.5.8,10,38.7,10.7,40.1s1.9,9.3,2.4,9.2c.6,1.5,30.3,100.9,44.6,149l67.2,226.7c.8,2.8-3.4,15.5-6.2,17.7-9.5,7.4-18.6,7.3-28.5.8-5.6-3.7-12.2-13.4-13.6-16-3.1-12.2-6.1-24.4-9.2-36.6q-8.9-35.8-17.9-71.6a9.8,9.8,0,0,0-2.3-4.8c-6.3-5.7-12.8-11.1-19.5-16.9-9.7,12.2-18.8,24.6-28.8,36.2-5.3,6.2-6.8,12.3-6.1,20.3,1.6,16.4,2.1,32.9,2.7,49.4.1,3.6,4.6,78.5,4.9,87.3,0,1.3-5.2,14-9,16.1-16.5,8.8-32.7,17.9-49,26.9a40.4,40.4,0,0,0-4,2.8Zm54.5-539c-10.6-4.8-21.3-8.7-32-12.6a7.5,7.5,0,0,0-3-.2c-15.3,2-30.6,3.9-45.9,6.2a6.8,6.8,0,0,0-4.7,3.9c-3.4,9.4-6.4,18.9-9.5,28.4-1.6,4.8-3.1,9.6-4.6,14.5a12,12,0,0,0,3.1-5c4.3-10.6,8.6-21.2,12.7-31.9,1.1-2.9,2.5-4.2,5.7-4.6,7.2-.9,14.4-2.4,21.6-3.3C402.6,512.6,440.1,518.5,444.6,519.2Zm-42.1,36.1c0,.8-.9,88.2-2.4,118.3s-2.9,59.2-4.3,88.9q-3.4,67.1-6.7,134.2c-1.2,23.6-2.5,47.3-3.7,70.9s-2.3,47.6-3.4,71.4c-.1,3.3,5.3,8.5,8.7,8.5s6.3-4.5,6.4-7.8L401,906.3,407,701c1.1-38.8,1.7-77.6,3.7-116.4a203.6,203.6,0,0,0,.5-20.7c-.4-12.6.6-25.3.7-38a11,11,0,0,0-2.5-6.6c-.8-1.1-3.3-1.6-4.8-1.3a4.7,4.7,0,0,0-2.9,3.5C401.6,522.9,402.4,547.3,402.5,555.3ZM348.4,770l20.1-20.6c0-.2,1.8-38,1-39.6-5-10.5-10.4-21-15.9-31.8L330,706.1c-1.3,25.4-.2,2.5-1.8,38.3Zm120.9,7.7c4.1-3.9,7.8-7.7,11.7-11.2,2.3-2.1,2.7-4.2,2-7.1-7-27-13.9-54-20.9-81a6.7,6.7,0,0,0-2-3.9c-4.9-3.8-10.1-7.4-15.5-11.3-2.6,3.2-5.2,6-7.4,9.1a10.3,10.3,0,0,0-1.9,5.8c1.2,22.7,2.5,45.5,3.9,68.2a5.7,5.7,0,0,0,1.5,4C450.2,759.6,459.8,768.7,469.3,777.7ZM384.2,570.2c-5.6,0-10.4.3-15.2,0s-4.9,1.1-5.9,4.3c-5.1,15.1-9.7,30.4-15.7,45.1-3.2,7.8-.8,12.9,3.9,18.6,6.5-4.8,12.7-9.8,19.4-14.1s9.9-9,10.2-17.1C381.3,595,383,582.9,384.2,570.2Zm50.3-2.6c-2.4,1.9-4.8,5.6-4.8,8.5.1,11.8,1.2,23.6,2,35.3.1,1.4.5,3.2,1.4,4,5.3,4.6,10.8,8.8,17.2,14l-12-49.8C438.7,579.7,436.1,566.2,434.5,567.6ZM396.6,446.7c6.5,0,8.4-2.8,8.4-8.4-.1-10.8.6-21.6.9-32.4q1.1-30.6,2-61.2h-.8C403.6,378.5,400.2,412.5,396.6,446.7Zm19.4,55c-1.6-5.3-2.8-10.9-5.1-16-1-2.1-4.2-3.7-6.8-4.3s-5.3.9-5.7,2.2c-2.1,6.9-3.5,13.9-5.2,21.1ZM372.4,628.3l-.5-.7-4.8,3.2q-19.2,13.1-38.2,26.3c-6.2,4.3-11.6,13.1-12.7,21.3Zm70.2,201.1,34.4-50c-9.7,8.7-18.2,18.5-27.6,27.2C442.5,812.8,440.6,819.7,442.6,829.4Zm-151-48.3c-4,11.6-7.5,22-11,32.4l.9.5,21-13.6Zm45.5,64.7-.8.5,16.5,36.8a115,115,0,0,0,2.4-18.9,5,5,0,0,0-1.2-3.1C348.4,855.9,342.8,850.9,337.1,845.8Zm82.7-388c-9.3-5.6-29.7-2.2-31.5,5.6C396.5,467,413.8,464,419.8,457.8ZM433,619.7l-1.7.7c.7,3.4.4,8.8,2.5,9.8,8,4.3,16.8,7.3,25.3,10.8a4.1,4.1,0,0,0,.5-.9Zm18.9-23.3-1.1.2c1.7,8.6,3.8,17.1,4.8,25.8.8,6.3,4.7,9.7,9.9,14.2ZM441.4,783.8c.5,8.1.8,14.7,1.2,21.2L454,794.9ZM402.5,324.2c-2.3-8.6.2-15.4,4.6-21.6C396.1,308,393.8,317.3,402.5,324.2ZM372.6,675.6l1.1-.4,1.3-13.9-7.3,5.8ZM359.2,819.2l-7.7,5,6.2,9.7C358.3,828.3,358.7,824.3,359.2,819.2Zm140.7-17.5,6.3,5.8a2.7,2.7,0,0,0,.8-.7c-.7-2.9-1.5-5.8-2.5-9.3Z" transform="translate(-158.7 -50.1)"/><path d="M275.9,50.1q36,73.5,72.1,147.1l.8-.3c-1.7-11.1-3.3-22.3-5-33.4l1.1-.2,27.3,80.8-.9.5c-5.4-12.1-10.7-24.1-16.5-37.3l-5,17.4c-25.3-58.9-50-116.6-74.8-174.2Z" transform="translate(-158.7 -50.1)"/><path d="M618.2,139.1l-126,131c.4-6.2.7-11.1,1-16.5l-27.4,26.8-.9-.9,53.4-65.2.9.5L503,244.4l.8.5L617.2,138.1Z" transform="translate(-158.7 -50.1)"/><path d="M198.3,150.9l100,94,.8-.5c-5.4-9.7-10.8-19.5-16.1-29.3l.9-.7c18.5,22.8,37.1,45.5,53.2,65.2l-28.2-26.4c.3,5.7.6,10.5,1,17L196.8,152.4Z" transform="translate(-158.7 -50.1)"/><path d="M522.2,305.4l120.7-43.3a10.4,10.4,0,0,1,.4,1l-139.8,58,6.7-12.5-27.4,10.9-.5-1.1q29.6-15.1,59-30.4l.6.9-20.4,15.6Z" transform="translate(-158.7 -50.1)"/><path d="M291.7,308.5l7,12.6-140-58,.4-1,121.5,43.6.3-.8L260.1,289l.5-.9,61,31.3-.4.9Z" transform="translate(-158.7 -50.1)"/><path d="M461.7,551.9c-6.5.1-7.8-3.6-4.8-14.9C458.5,541.9,460.1,546.8,461.7,551.9Z" transform="translate(-158.7 -50.1)"/><path d="M465,576.2" transform="translate(-158.7 -50.1)"/><line x1="302.6" y1="503.1" x2="299.8" y2="502.9"/><path d="M451.2,522.4" transform="translate(-158.7 -50.1)"/><path d="M453.7,521.6" transform="translate(-158.7 -50.1)"/><path d="M516.6,58.6c-24.2,55-48.4,110.1-73.2,166.3l-4.8-15.8-16.5,34.6-1.2-.5c9.3-26.5,18.5-53.1,27.8-79.6h1c-1.6,11.2-3.3,22.3-5,33.4l.9.2q34.9-69.6,69.8-139.2Z" transform="translate(-158.7 -50.1)"/><path d="M398.2,565" transform="translate(-158.7 -50.1)"/><path d="M374.7,736.6" transform="translate(-158.7 -50.1)"/><path d="M172.6,967.6" transform="translate(-158.7 -50.1)"/></svg>