<svg id="Capa_1" data-name="Capa 1" xmlns="http://www.w3.org/2000/svg" viewBox="0 0 602.1 602.1"><title>Transmisor</title><path d="M610,922c-3.3,7-8.8,9.3-16.5,9.3H114.6c-12.5,0-16.6-4.1-16.6-16.4V742.4c0-11.7,4.6-16.2,16.4-16.2h47.4c.1-1.9.2-3.6.2-5.2,0-11-.1-22,.1-33,0-7.3,5.1-12.8,12.5-12.8q38.7-.3,77.4,0c7.7.1,12.5,5.9,12.6,14.5.1,10.2,0,20.4,0,30.5v5.7h50.8V713.2c.2-18.5-.4-37,.7-55.5s18.5-33.8,38.6-33.7S391,639.1,392,658.1s.4,40.3.6,60.4v7.7h50.6c.1-2.1.2-3.9.2-5.7,0-10.1-.1-20.3,0-30.5s5.2-15,15.2-15h72.5c10.1,0,14.9,4.8,14.9,15v36.1h9.6c12,0,24,.2,36-.2,8-.2,14.4,1.7,18.4,9Zm-26.2-16.9V752.3H124.1V905.1ZM366.4,725.9V660.4a4.4,4.4,0,0,0-.2-1,12.1,12.1,0,0,0-11.8-9.5c-8.1-.2-13.1,5.3-13.2,14.7-.1,19.1,0,38.3,0,57.4a25.8,25.8,0,0,0,.4,3.9Zm-128,0V701.2H188.1v24.7ZM520,701.2H469.5v24.6H520Z" transform="translate(-71.3 -424.8)"/><path d="M489.4,523.4c-3.6-2.2-7.5-4-10.6-6.6-22.9-19.4-48.6-33.4-77.7-40.3-58.4-13.9-112.2-3.4-161,31.8-3.9,2.8-7.7,6.1-13,5.4s-9.4-3.7-10.9-9.1-.3-10.9,4.7-14.1c13.8-8.7,27.2-18.1,41.8-25.3,33.5-16.6,69.5-22.6,106.6-19.9,48.5,3.5,91.3,21.5,128,53.5,5.3,4.7,6.7,9.6,4.7,15.1S495.5,522.2,489.4,523.4Z" transform="translate(-71.3 -424.8)"/><path d="M245.9,540.3c2.3-3.4,4.1-7.5,7.2-10a157,157,0,0,1,72.7-32c51.4-8.1,97.3,4.7,137.1,38.4,4.4,3.7,7,8.1,5.5,14s-5.1,8.8-10.8,9.7-8.6-1.6-12.1-4.6a135.5,135.5,0,0,0-54.9-28.4c-42.7-10.6-82.4-3.8-118.9,21.1-2.2,1.5-4.3,3.3-6.7,4.3a12.7,12.7,0,0,1-17.9-11.6Z" transform="translate(-71.3 -424.8)"/><path d="M421.3,599.7c-2.7-1.4-5.9-2.2-8.2-4.2-19.7-16.5-42.3-23.8-68-21.6-16.4,1.5-31.1,7.7-44.6,17a19.3,19.3,0,0,1-11.4,3.4c-5.1-.2-8.8-3.9-10.1-9.1s.3-10.2,4.8-13.7a107.2,107.2,0,0,1,41-19.9c38.6-9.2,73.4-1.5,104.2,23.9,4.6,3.8,7,8.4,5,14.5S427.5,599,421.3,599.7Z" transform="translate(-71.3 -424.8)"/><path d="M507.7,867.1a38.3,38.3,0,0,1-38.6-38,38.9,38.9,0,0,1,38.6-38.9A38.5,38.5,0,0,1,546,828.7,38.1,38.1,0,0,1,507.7,867.1Zm12.4-38.4A12.6,12.6,0,0,0,507.5,816a13.1,13.1,0,0,0-12.6,12.9,12.5,12.5,0,0,0,12.8,12.4A12.1,12.1,0,0,0,520.1,828.7Z" transform="translate(-71.3 -424.8)"/><path d="M238.9,816H176.4c-8.6,0-14.2-4.9-14.4-12.5s5.5-13.3,14.3-13.3H301.2c8.6,0,14.7,5.8,14.5,13.2S309.8,816,300.8,816Z" transform="translate(-71.3 -424.8)"/><path d="M238.5,867.2c-20.4,0-40.9.2-61.4-.1a20.4,20.4,0,0,1-10.2-2.9c-4.5-2.8-5.8-7.7-4.6-12.8s4.8-9,10.4-9.5,12.6-.5,18.9-.5H299a33.9,33.9,0,0,1,4.5.2c7.4,1,12.6,6.6,12.2,13.3s-5.6,12.1-13.2,12.2c-15.3.2-30.6.1-46,.1Z" transform="translate(-71.3 -424.8)"/><path d="M673.3,424.8v602.1H71.3V424.8Z" transform="translate(-71.3 -424.8)" style="fill:#fff;opacity:0"/></svg>